HIERARCHY
ROOT Hips
{
	OFFSET 0.00000 0.00000 0.00000
	CHANNELS 6 Xposition Yposition Zposition Yrotation Zrotation Xrotation 
	JOINT Lumbar
	{
		OFFSET 0 0 0
		CHANNELS 3 Zrotation Xrotation Yrotation
		JOINT Neck
		{
			OFFSET 0.00 0.2701 0.00
			CHANNELS 3 Zrotation Xrotation Yrotation
			End Site
			{
				OFFSET 0.00 0.1379 0.00
			}
		}
		JOINT RightShoulder
		{
			OFFSET 0.0119 0.2289 0.1181
			CHANNELS 3 Zrotation Xrotation Yrotation
			JOINT RightElbow
			{
				OFFSET 0.00 -0.1475 0.00
				CHANNELS 2 Zrotation Yrotation
				JOINT RightWrist
				{
					OFFSET 0.00 -0.1605 0.00
					CHANNELS 2 Zrotation Xrotation
					End Site
					{
						OFFSET 0.0040 -0.1068 0.0006
					}
				}
			}
		}
		JOINT LeftShoulder
		{
			OFFSET 0.0119 0.2289 -0.1181
			CHANNELS 3 Zrotation Xrotation Yrotation
			JOINT LeftElbow
			{
				OFFSET 0.00 -0.1475 0.00
				CHANNELS 2 Zrotation Yrotation
				JOINT LeftWrist
				{
					OFFSET 0.00 -0.1605 0.00
					CHANNELS 2 Zrotation Xrotation
					End Site
					{
						OFFSET 0.0040 -0.1068 -0.0006
					}
				}
			}
		}
	}
	JOINT RightHip
	{
		OFFSET 0.0316 -0.0424 0.0458
		CHANNELS 3 Zrotation Xrotation Yrotation
		JOINT RightKnee
		{
			OFFSET 0.00 -0.2438 0.00
			CHANNELS 1 Zrotation
			JOINT RightAnkle
			{
				OFFSET 0.00 -0.2449 0.00
				CHANNELS 3 Zrotation Xrotation Yrotation
				End Site
				{
					OFFSET 0.1237 -0.0542 0.0051
				}
			}
		}
	}
	JOINT LeftHip
	{
		OFFSET 0.0316 -0.0424 -0.0458
		CHANNELS 3 Zrotation Xrotation Yrotation
		JOINT LeftKnee
		{
			OFFSET 0.00 -0.2438 0.00
			CHANNELS 1 Zrotation
			JOINT LeftAnkle
			{
				OFFSET 0.00 -0.2449 0.00
				CHANNELS 3 Zrotation Xrotation Yrotation
				End Site
				{
					OFFSET 0.1237 -0.0542 -0.0051
				}
			}
		}
	}
}
MOTION
Frames: 33
Frame Time: 0.02
1.2986 0.28497 -1.20652 361.65156 -20.66442 -4.03353 41.28132 -1.62077 -5.44551 -11.48086 14.10535 -0.83079 -11.01198 -41.65938 -8.99952 49.74947 82.17894 1.1318 -2.12541 -32.244 15.34605 1.072 36.57198 -88.57219 5.3362 0.46542 11.63877 -17.76969 26.75215 0.39807 -53.99729 -30.25605 -21.3901 8.96558 -8.1421 25.88717 0.49048 -1.48283 -2.35874 -0.81763
1.29587 0.28452 -1.20713 361.269 -20.44783 -4.02999 40.58545 -1.51814 -5.35065 -11.59845 14.31632 -0.83079 -13.72332 -37.81151 -6.95871 48.29356 83.86144 1.90573 -1.60186 -32.552 15.43695 0.91498 36.97967 -89.01338 5.45131 0.34053 11.91435 -17.91851 27.32522 0.39561 -54.00112 -29.97361 -21.3912 9.02779 -8.30322 26.1634 0.49182 -1.44191 -2.33087 -0.75905
1.29289 0.28406 -1.20769 360.86019 -20.22389 -4.06191 39.82513 -1.4033 -5.25129 -11.68386 14.58216 -0.83079 -15.58717 -33.94504 -3.9346 45.65875 86.0659 2.71432 -0.88035 -32.75851 15.61463 0.70192 37.55672 -89.48892 5.51529 0.18997 12.22968 -18.0271 27.95835 0.39319 -54.00459 -29.6629 -21.39213 9.10954 -8.42409 26.42401 0.4935 -1.39558 -2.27696 -0.66124
1.29002 0.28361 -1.20828 360.45266 -20.0289 -4.08264 39.11132 -1.29289 -5.16641 -11.78641 14.82121 -0.83079 -17.85349 -30.09803 -1.41376 43.61024 88.11116 3.53288 -0.25001 -33.01417 15.75794 0.52086 38.07463 -89.97459 5.62837 0.05253 12.55861 -18.15335 28.59786 0.39109 -54.00807 -29.36349 -21.39307 9.21418 -8.55877 26.69892 0.49506 -1.34367 -2.22835 -0.5829
1.28717 0.28313 -1.20886 360.09003 -19.72538 -4.08221 38.32291 -1.1863 -5.02354 -11.87639 15.07129 -0.83079 -20.00785 -26.17554 1.41328 41.32596 89.86209 4.263 0.39197 -33.25206 15.88257 0.30759 38.52347 -90.36783 5.64377 -0.09281 12.7553 -18.2849 29.1011 0.38754 -54.01305 -29.06323 -21.39466 9.18527 -8.71443 26.94538 0.49651 -1.32821 -2.20873 -0.49882
1.28421 0.2827 -1.20945 359.6249 -19.64517 -4.13373 37.67428 -1.06959 -5.00335 -11.98687 15.30796 -0.83079 -22.20369 -22.42349 3.80809 39.25973 92.31328 5.17014 1.05254 -33.50434 16.06544 0.15035 39.15058 -90.94823 5.84109 -0.22658 13.23606 -18.3948 29.89929 0.38701 -54.0138 -28.76343 -21.39444 9.43827 -8.81667 27.24979 0.49825 -1.23456 -2.12202 -0.41673
1.28099 0.28243 -1.21011 358.91688 -20.1975 -4.32822 37.44052 -0.92322 -5.31238 -12.14623 15.52115 -0.83079 -24.78607 -19.06929 4.79073 38.10618 96.86544 6.65476 1.73639 -33.82485 16.3909 0.1556 40.268 -92.13333 6.61704 -0.32976 14.49314 -18.45483 31.50426 0.39493 -54.01199 -28.43911 -21.39269 10.47286 -8.77346 27.67804 0.50068 -0.92726 -1.85483 -0.35136
1.27765 0.28222 -1.21078 358.10062 -20.9721 -4.57216 37.34784 -0.76812 -5.74744 -12.32988 15.71355 -0.83079 -27.43282 -15.90653 5.29084 37.21328 102.05277 8.29818 2.42751 -34.16223 16.77108 0.22077 41.54924 -93.49094 7.56666 -0.41952 16.03296 -18.49399 33.39905 0.40583 -54.00448 -28.12225 -21.38838 11.78853 -8.67904 28.17101 0.50337 -0.54137 -1.52019 -0.28835
1.27437 0.28197 -1.21144 357.31246 -21.63634 -4.78855 37.18215 -0.62011 -6.13266 -12.51325 15.898 -0.83079 -30.01534 -12.70767 5.98821 36.18852 106.74862 9.8015 3.10145 -34.49181 17.12387 0.26308 42.73187 -94.69964 8.39214 -0.50935 17.44372 -18.54235 35.15958 0.41531 -53.99336 -27.82498 -21.38318 12.97099 -8.61266 28.6608 0.50593 -0.18991 -1.21843 -0.22378
1.27107 0.28175 -1.21211 356.61302 -22.3411 -5.02856 37.05088 -0.45822 -6.4871 -12.65181 16.15888 -0.83079 -32.71907 -9.2856 6.81458 35.17392 112.29966 11.5864 3.84154 -34.82331 17.49033 0.28525 44.03087 -96.18909 9.40041 -0.62267 18.86359 -18.59082 36.94509 0.42515 -54.00746 -27.43257 -21.38716 14.17929 -8.5244 29.04273 0.50858 0.15807 -0.91011 -0.16222
1.26779 0.28148 -1.21277 355.70263 -23.01264 -5.22943 36.88333 -0.32367 -6.93461 -12.8877 16.25357 -0.83079 -35.19192 -6.38335 7.24399 34.2216 116.23789 12.83036 4.44228 -35.14988 17.84025 0.36395 45.11363 -97.15721 10.0779 -0.68711 20.32446 -18.6343 38.7315 0.43485 -53.96889 -27.2368 -21.37074 15.3977 -8.47054 29.66071 0.51108 0.52963 -0.59506 -0.09258
1.26452 0.28106 -1.21345 354.2434 -23.55301 -5.32027 36.5733 -0.26382 -7.61714 -13.40494 15.90618 -0.83079 -37.05672 -4.79359 6.69214 33.33139 115.34945 12.46738 4.6613 -35.51242 18.12981 0.58918 45.64859 -96.43462 9.72627 -0.58723 21.88536 -18.67235 40.55649 0.44422 -53.77006 -27.60268 -21.29694 16.59734 -8.52021 30.94948 0.51317 0.96595 -0.31781 -0.0242
1.26129 0.28058 -1.21411 352.57465 -24.04969 -5.36774 36.22435 -0.23239 -8.3871 -14.01572 15.39016 -0.83079 -38.68123 -3.73491 5.75242 32.50901 112.85096 11.56697 4.73804 -35.8595 18.40051 0.86939 45.94304 -95.21219 9.04696 -0.44337 23.46666 -18.70598 42.33712 0.45306 -53.51749 -28.15459 -21.19781 17.79327 -8.60729 32.46658 0.51508 1.41923 -0.02839 0.05707
1.25807 0.28012 -1.21477 350.99698 -24.55639 -5.42847 35.89774 -0.18998 -9.11163 -14.57204 14.94289 -0.83079 -40.39267 -2.48289 4.9878 31.69245 111.23353 10.96271 4.87559 -36.17951 18.6804 1.12039 46.28769 -94.3656 8.56933 -0.34241 25.00226 -18.73932 44.08657 0.46177 -53.30517 -28.61809 -21.11803 18.97631 -8.67993 33.85706 0.51702 1.85299 0.28099 0.14765
1.25471 0.27965 -1.2155 349.43204 -25.11167 -5.51898 35.5535 -0.13916 -9.86573 -15.18076 14.52668 -0.83079 -42.20674 -1.03409 4.21385 30.73145 109.02037 10.14987 5.02929 -36.64571 18.96015 1.38799 46.88632 -92.93034 7.886 -0.14914 26.70336 -18.78042 46.12432 0.47268 -53.04205 -29.1307 -21.02649 20.23062 -8.73956 35.3485 0.51917 2.34146 0.48351 0.17272
1.25167 0.27921 -1.21606 347.79343 -25.55335 -5.53549 35.2385 -0.11263 -10.57597 -15.70081 14.00792 -0.83079 -43.74056 -0.11971 3.37099 30.0817 107.64183 9.63549 5.11608 -36.80136 19.23437 1.63741 46.89837 -92.55886 7.53718 -0.13171 28.05863 -18.80607 47.47024 0.47822 -52.85174 -29.5443 -20.92657 21.33204 -8.83629 36.68024 0.52083 2.71635 0.91262 0.3391
1.24948 0.27883 -1.21616 345.99314 -25.68326 -5.36646 34.98233 -0.14707 -11.15413 -15.96521 13.23108 -0.83079 -44.63385 -0.54301 2.45543 30.29872 109.08274 10.12798 5.04513 -36.12257 19.50331 1.7862 45.33701 -95.6069 8.31197 -0.66446 28.47153 -18.77777 47.59995 0.47446 -53.0562 -30.00358 -21.05024 22.00914 -9.02278 37.53851 0.52134 2.79503 1.94724 0.87765
1.24763 0.27848 -1.21609 344.12843 -25.70059 -5.12257 34.76191 -0.2048 -11.68199 -16.13476 12.36034 -0.83079 -45.239 -1.48627 1.48323 30.82238 111.38755 10.92774 4.91186 -35.12864 19.76639 1.92039 43.19773 -99.67876 9.41255 -1.36633 28.53085 -18.73657 46.92435 0.46443 -53.30681 -30.29944 -21.12875 22.53126 -9.24618 38.2234 0.52136 2.75418 3.21237 1.56089
1.24565 0.27813 -1.21609 342.29977 -25.7745 -4.90742 34.54527 -0.2514 -12.22606 -16.3397 11.5428 -0.83079 -45.92729 -2.19596 0.52277 31.18701 113.22168 11.5541 4.81383 -34.26559 20.02794 2.08646 41.32705 -103.03991 10.28321 -1.95471 28.7393 -18.70938 46.14443 0.45353 -53.41195 -30.41737 -21.06088 23.12543 -9.45529 38.97211 0.52153 2.75374 4.38286 2.18746
1.24353 0.27775 -1.21613 340.43442 -25.82538 -4.71348 34.24356 -0.30149 -12.80353 -16.58054 10.67339 -0.83079 -46.81011 -2.9132 -0.39761 31.63149 115.35345 12.30964 4.68694 -33.45192 20.30522 2.15201 39.41214 -107.40322 11.48373 -2.6936 28.99801 -18.64731 47.27286 0.45775 -54.02148 -31.5624 -21.66669 23.71446 -9.65538 39.79241 0.522 2.81346 5.511 2.77551
1.24181 0.27742 -1.21603 338.63386 -25.89653 -4.45767 34.12705 -0.34921 -13.29556 -16.72277 9.89385 -0.83079 -47.22111 -3.73072 -1.40329 31.98878 117.06149 12.86942 4.60057 -32.46347 20.55026 2.41757 37.46875 -109.94972 12.08438 -3.16302 29.06703 -18.65527 44.33089 0.42972 -53.61632 -30.58225 -20.89668 24.27535 -9.88231 40.41896 0.52171 2.71826 6.78205 3.47878
1.24108 0.27721 -1.21564 337.02177 -26.06422 -4.05332 34.52186 -0.38687 -13.58692 -16.61608 9.3701 -0.83079 -46.41158 -4.69983 -2.68216 31.96887 117.65932 12.87443 4.70074 -31.04604 20.69396 3.28129 35.47419 -107.0507 10.90296 -2.81861 28.70532 -18.85635 29.52203 0.30781 -50.18865 -23.29294 -16.01143 24.81371 -10.17603 40.55582 0.51957 2.23269 8.38999 4.45772
1.24073 0.27704 -1.2151 335.47967 -26.2542 -3.58877 35.10041 -0.42084 -13.7892 -16.41283 8.944 -0.83079 -45.13605 -5.7488 -4.03201 31.86241 117.76496 12.66443 4.83472 -29.46808 20.80853 4.33741 33.49425 -102.324 9.1175 -2.20254 28.16426 -19.12878 10.79505 0.15481 -45.77675 -13.95662 -9.80241 25.32609 -10.49479 40.50219 0.51666 1.59376 10.13386 5.54855
1.24021 0.27684 -1.21461 333.91024 -26.42535 -3.14938 35.5893 -0.45484 -14.01686 -16.25333 8.48381 -0.83079 -44.06747 -6.75739 -5.31522 31.83464 117.91761 12.51389 4.91337 -27.97902 20.94499 5.279 31.58244 -98.55301 7.63944 -1.72989 27.7 -19.37107 -5.59286 0.02025 -41.95401 -5.87531 -4.41659 25.83873 -10.80106 40.53247 0.51403 1.01957 11.81642 6.59317
1.23969 0.27666 -1.2142 332.31815 -26.62837 -2.71658 36.10529 -0.49637 -14.30694 -16.09155 7.97579 -0.83079 -43.0095 -7.80206 -6.75113 31.64872 118.81777 12.52982 5.15329 -26.41148 21.04288 6.33949 29.33108 -94.28799 6.03079 -1.1795 27.24043 -19.60417 -24.35177 -0.13261 -37.53722 3.5713 1.89842 26.39377 -11.11414 40.56721 0.5117 0.46202 13.50549 7.62467
1.23925 0.27647 -1.21358 330.79244 -26.77294 -2.2568 36.60818 -0.52133 -14.44605 -15.91232 7.59307 -0.83079 -41.82199 -8.78327 -7.87841 31.77107 118.06751 12.15079 5.07266 -24.97359 21.21653 7.19193 27.80242 -90.60623 4.55013 -0.72348 26.73669 -19.87239 -39.11081 -0.2548 -34.11925 10.67232 6.60186 26.85754 -11.41748 40.55073 0.50854 -0.16492 15.20975 8.70642
1.23901 0.27627 -1.21247 329.42046 -26.74073 -1.73731 37.02816 -0.4989 -14.19486 -15.71352 7.52257 -0.83079 -40.39753 -9.5698 -8.19153 32.73504 112.57988 10.67511 4.04287 -23.93261 21.58702 7.47668 28.23091 -88.96443 3.53844 -0.60106 26.12555 -20.22953 -41.69841 -0.28353 -33.73507 10.67185 6.44397 27.06582 -11.69579 40.42982 0.50329 -0.94549 16.92481 9.91316
1.23882 0.27605 -1.21115 328.11642 -26.65117 -1.19327 37.42862 -0.46033 -13.79485 -15.5004 7.57709 -0.83079 -38.85934 -10.28687 -8.18086 34.01624 105.49906 8.81906 2.69989 -23.02914 22.03826 7.5356 29.39505 -87.97074 2.68079 -0.58102 25.48322 -20.61753 -40.15151 -0.2805 -34.38237 8.26211 4.63462 27.18554 -11.96143 40.26606 0.49704 -1.78933 18.64792 11.16265
1.23855 0.27584 -1.2099 326.78872 -26.5952 -0.66056 37.83918 -0.43061 -13.45923 -15.2906 7.58137 -0.83079 -37.36983 -11.03312 -8.28182 35.17103 99.34196 7.17381 1.53735 -22.06473 22.46553 7.66242 30.24905 -86.68711 1.77223 -0.50886 24.87646 -20.98573 -40.60489 -0.29276 -34.53554 7.03616 3.6384 27.35331 -12.22786 40.1297 0.49154 -2.60483 20.3661 12.38382
1.23852 0.27567 -1.20876 325.42939 -26.5089 -0.12426 38.25156 -0.39412 -13.13138 -15.08937 7.56136 -0.83079 -35.87513 -11.79308 -8.53547 36.24872 92.32995 5.3601 0.21568 -21.08859 22.8387 7.94186 31.00369 -85.32168 0.76236 -0.45056 24.1737 -21.38214 -40.68797 -0.30256 -34.76543 5.50798 2.42404 27.48804 -12.51749 39.95523 0.48565 -3.42705 22.09869 13.64941
1.23801 0.27539 -1.20733 324.15563 -26.47096 0.40869 38.65242 -0.36827 -12.75666 -14.86997 7.62022 -0.83079 -34.37213 -12.50628 -8.39298 37.56255 86.72056 3.81094 -0.85016 -20.17088 23.34332 7.84818 32.13657 -84.3033 0.00767 -0.39171 23.66487 -21.72452 -40.50343 -0.30944 -35.08837 4.00859 1.25463 27.66977 -12.75378 39.84982 0.47925 -4.24448 23.79616 14.82753
1.23622 0.27484 -1.2052 323.06325 -26.5875 0.93319 39.03001 -0.37269 -12.25913 -14.58939 7.86825 -0.83079 -32.86243 -13.11054 -7.23818 39.4566 85.42811 3.0755 -1.12577 -19.38961 24.19756 6.77054 34.1633 -84.10093 -0.07544 -0.30332 23.7078 -21.92352 -40.61971 -0.31656 -35.46267 3.18355 0.6061 28.01425 -12.85858 39.96215 0.47565 -5.06646 25.42922 15.77921
1.23393 0.27418 -1.20278 322.06146 -26.75251 1.45148 39.39418 -0.38881 -11.72536 -14.29444 8.19104 -0.83079 -31.35349 -13.66855 -5.6957 41.57516 85.5949 2.6223 -1.13457 -18.66204 25.17979 5.32614 36.53957 -84.23181 0.09496 -0.21276 23.94529 -22.06379 -40.58379 -0.32157 -35.89103 2.45936 0.05451 28.40799 -12.9067 40.13834 0.46725 -5.87552 27.0132 16.63281
